{
  "accessors": [
    {
      "bufferView": 2,
      "componentType": 5126,
      "count": 65532,
      "max": [
        0.355302631855011,
        0.46117210388183594,
        0.33749327063560486
      ],
      "min": [
        -0.33726799488067627,
        0.0005694878054782748,
        -0.33760592341423035
      ],
      "type": "VEC3"
    },
    {
      "bufferView": 2,
      "byteOffset": 786384,
      "componentType": 5126,
      "count": 65532,
      "max": [
        0.9999285340309143,
        0.9999985694885254,
        0.9999070167541504
      ],
      "min": [
        -0.9999716877937317,
        -0.9999668002128601,
        -0.9999315142631531
      ],
      "type": "VEC3"
    },
    {
      "bufferView": 0,
      "componentType": 5125,
      "count": 374799,
      "type": "SCALAR"
    },
    {
      "bufferView": 2,
      "byteOffset": 1572768,
      "componentType": 5126,
      "count": 17157,
      "max": [
        0.355302631855011,
        0.45984920859336853,
        0.33749327063560486
      ],
      "min": [
        -0.3381563723087311,
        0.0003257178468629718,
        -0.3329811096191406
      ],
      "type": "VEC3"
    },
    {
      "bufferView": 2,
      "byteOffset": 1778652,
      "componentType": 5126,
      "count": 17157,
      "max": [
        0.9997386932373047,
        0.9999985694885254,
        0.9999650120735168
      ],
      "min": [
        -0.9993458390235901,
        -0.9997619390487671,
        -0.9996954202651978
      ],
      "type": "VEC3"
    },
    {
      "bufferView": 0,
      "byteOffset": 1499196,
      "componentType": 5125,
      "count": 71115,
      "type": "SCALAR"
    },
    {
      "bufferView": 2,
      "byteOffset": 1984536,
      "componentType": 5126,
      "count": 4096,
      "max": [
        0.17994020879268646,
        0.08483603596687317,
        0.17994020879268646
      ],
      "min": [
        -0.17994020879268646,
        0.03573812171816826,
        -0.17994020879268646
      ],
      "type": "VEC3"
    },
    {
      "bufferView": 2,
      "byteOffset": 2033688,
      "componentType": 5126,
      "count": 4096,
      "max": [
        0.9961963295936584,
        0.9932703375816345,
        0.9961959719657898
      ],
      "min": [
        -0.9961963295936584,
        -0.9879502058029175,
        -0.9961959719657898
      ],
      "type": "VEC3"
    },
    {
      "bufferView": 1,
      "componentType": 5126,
      "count": 4096,
      "max": [
        0.0,
        0.0
      ],
      "min": [
        0.0,
        0.0
      ],
      "type": "VEC2"
    },
    {
      "bufferView": 0,
      "byteOffset": 1783656,
      "componentType": 5125,
      "count": 24576,
      "type": "SCALAR"
    },
    {
      "bufferView": 2,
      "byteOffset": 2082840,
      "componentType": 5126,
      "count": 3633,
      "max": [
        0.029742510989308357,
        0.029775694012641907,
        0.00446423701941967
      ],
      "min": [
        -0.029775695875287056,
        -0.029775694012641907,
        -0.004464236553758383
      ],
      "type": "VEC3"
    },
    {
      "bufferView": 2,
      "byteOffset": 2126436,
      "componentType": 5126,
      "count": 3633,
      "max": [
        1.0,
        1.0,
        0.9999979734420776
      ],
      "min": [
        -1.0,
        -1.0,
        -0.9999979734420776
      ],
      "type": "VEC3"
    },
    {
      "bufferView": 1,
      "byteOffset": 32768,
      "componentType": 5126,
      "count": 3633,
      "max": [
        0.8750001192092896,
        1.0000001192092896
      ],
      "min": [
        0.125,
        0.0
      ],
      "type": "VEC2"
    },
    {
      "bufferView": 0,
      "byteOffset": 1881960,
      "componentType": 5125,
      "count": 19008,
      "type": "SCALAR"
    },
    {
      "bufferView": 2,
      "byteOffset": 2170032,
      "componentType": 5126,
      "count": 66,
      "max": [
        0.028293414041399956,
        0.026882341131567955,
        0.0029240509029477835
      ],
      "min": [
        0.0224453117698431,
        -0.026882341131567955,
        -0.0029240509029477835
      ],
      "type": "VEC3"
    },
    {
      "bufferView": 2,
      "byteOffset": 2170824,
      "componentType": 5126,
      "count": 66,
      "max": [
        1.0,
        0.0,
        1.0
      ],
      "min": [
        -1.0,
        0.0,
        -1.0
      ],
      "type": "VEC3"
    },
    {
      "bufferView": 1,
      "byteOffset": 61832,
      "componentType": 5126,
      "count": 66,
      "max": [
        1.0,
        1.0
      ],
      "min": [
        0.0,
        0.5
      ],
      "type": "VEC2"
    },
    {
      "bufferView": 0,
      "byteOffset": 1957992,
      "componentType": 5125,
      "count": 192,
      "type": "SCALAR"
    },
    {
      "bufferView": 2,
      "byteOffset": 2171616,
      "componentType": 5126,
      "count": 953,
      "max": [
        0.025813769549131393,
        0.003994733095169067,
        0.0021372379269450903
      ],
      "min": [
        -0.019771240651607513,
        -0.003994733095169067,
        -0.0021372379269450903
      ],
      "type": "VEC3"
    },
    {
      "bufferView": 2,
      "byteOffset": 2183052,
      "componentType": 5126,
      "count": 953,
      "max": [
        1.0,
        1.0,
        0.9999685287475586
      ],
      "min": [
        -1.0,
        -1.0,
        -0.9999685287475586
      ],
      "type": "VEC3"
    },
    {
      "bufferView": 1,
      "byteOffset": 62360,
      "componentType": 5126,
      "count": 953,
      "max": [
        1.000000238418579,
        1.000000238418579
      ],
      "min": [
        0.16794519126415253,
        0.0
      ],
      "type": "VEC2"
    },
    {
      "bufferView": 0,
      "byteOffset": 1958760,
      "componentType": 5125,
      "count": 5184,
      "type": "SCALAR"
    }
  ],
  "asset": {
    "extras": {
      "author": "Incg5764 (https://sketchfab.com/incg5764)",
      "license": "CC-BY-4.0 (http://creativecommons.org/licenses/by/4.0/)",
      "source": "https://sketchfab.com/3d-models/wizards-hat-8a9905ccc8a441cb8de17615812ceb50",
      "title": "Wizard's Hat"
    },
    "generator": "Sketchfab-14.87.0",
    "version": "2.0"
  },
  "bufferViews": [
    {
      "buffer": 0,
      "byteLength": 1979496,
      "name": "floatBufferViews",
      "target": 34963
    },
    {
      "buffer": 0,
      "byteLength": 69984,
      "byteOffset": 1979496,
      "byteStride": 8,
      "name": "floatBufferViews",
      "target": 34962
    },
    {
      "buffer": 0,
      "byteLength": 2194488,
      "byteOffset": 2049480,
      "byteStride": 12,
      "name": "floatBufferViews",
      "target": 34962
    }
  ],
  "buffers": [
    {
      "byteLength": 4243968,
      "uri": "scene.bin"
    }
  ],
  "extensionsUsed": [
    "KHR_materials_specular"
  ],
  "materials": [
    {
      "doubleSided": true,
      "name": "material_0",
      "pbrMetallicRoughness": {
        "metallicFactor": 0.0,
        "roughnessFactor": 0.6
      }
    },
    {
      "doubleSided": true,
      "extensions": {
        "KHR_materials_specular": {
          "specularColorFactor": [
            1.0,
            1.0,
            1.0
          ],
          "specularFactor": 1.0
        }
      },
      "name": "Material.001",
      "pbrMetallicRoughness": {
        "baseColorFactor": [
          0.14845058444110895,
          0.03163601242029527,
          0.017022280196824956,
          1.0
        ],
        "metallicFactor": 0.0,
        "roughnessFactor": 0.7466765268957943
      }
    },
    {
      "doubleSided": true,
      "name": "Material.002",
      "pbrMetallicRoughness": {
        "baseColorFactor": [
          0.095756,
          0.0437013,
          0.0163585,
          1.0
        ],
        "metallicFactor": 0.0
      }
    },
    {
      "doubleSided": true,
      "name": "Material.003",
      "pbrMetallicRoughness": {
        "baseColorFactor": [
          0.8,
          0.8,
          0.8,
          1.0
        ],
        "roughnessFactor": 0.223636
      }
    }
  ],
  "meshes": [
    {
      "name": "Object_0",
      "primitives": [
        {
          "attributes": {
            "NORMAL": 1,
            "POSITION": 0
          },
          "indices": 2,
          "material": 1,
          "mode": 4
        }
      ]
    },
    {
      "name": "Object_1",
      "primitives": [
        {
          "attributes": {
            "NORMAL": 4,
            "POSITION": 3
          },
          "indices": 5,
          "material": 1,
          "mode": 4
        }
      ]
    },
    {
      "name": "Object_2",
      "primitives": [
        {
          "attributes": {
            "NORMAL": 7,
            "POSITION": 6,
            "TEXCOORD_0": 8
          },
          "indices": 9,
          "material": 2,
          "mode": 4
        }
      ]
    },
    {
      "name": "Object_3",
      "primitives": [
        {
          "attributes": {
            "NORMAL": 11,
            "POSITION": 10,
            "TEXCOORD_0": 12
          },
          "indices": 13,
          "material": 3,
          "mode": 4
        }
      ]
    },
    {
      "name": "Object_4",
      "primitives": [
        {
          "attributes": {
            "NORMAL": 15,
            "POSITION": 14,
            "TEXCOORD_0": 16
          },
          "indices": 17,
          "material": 0,
          "mode": 4
        }
      ]
    },
    {
      "name": "Object_5",
      "primitives": [
        {
          "attributes": {
            "NORMAL": 19,
            "POSITION": 18,
            "TEXCOORD_0": 20
          },
          "indices": 21,
          "material": 3,
          "mode": 4
        }
      ]
    }
  ],
  "nodes": [
    {
      "children": [
        1
      ],
      "matrix": [
        1.0,
        0.0,
        0.0,
        0.0,
        0.0,
        2.220446049250313e-16,
        -1.0,
        0.0,
        0.0,
        1.0,
        2.220446049250313e-16,
        0.0,
        0.0,
        0.0,
        0.0,
        1.0
      ],
      "name": "Sketchfab_model"
    },
    {
      "children": [
        2
      ],
      "name": "root"
    },
    {
      "children": [
        3,
        6,
        8
      ],
      "matrix": [
        1.0,
        0.0,
        0.0,
        0.0,
        0.0,
        2.220446049250313e-16,
        1.0,
        0.0,
        0.0,
        -1.0,
        2.220446049250313e-16,
        0.0,
        0.0,
        0.0,
        0.0,
        1.0
      ],
      "name": "GLTF_SceneRootNode"
    },
    {
      "children": [
        4,
        5
      ],
      "name": "Circle_0"
    },
    {
      "mesh": 0,
      "name": "Object_4"
    },
    {
      "mesh": 1,
      "name": "Object_5"
    },
    {
      "children": [
        7
      ],
      "name": "Circle.001_1"
    },
    {
      "mesh": 2,
      "name": "Object_7"
    },
    {
      "children": [
        9,
        10,
        12
      ],
      "matrix": [
        0.18465957435414926,
        -0.014438241279069036,
        0.9826964835533462,
        0.0,
        0.36359863879829735,
        0.9299506497673253,
        -0.0546609445706418,
        0.0,
        -0.9130700254982472,
        0.3674007705300805,
        0.17697401603210972,
        0.0,
        -0.17087912559509277,
        0.061707690358161926,
        0.0003404135350137949,
        1.0
      ],
      "name": "Cube_4"
    },
    {
      "mesh": 3,
      "name": "Object_9"
    },
    {
      "children": [
        11
      ],
      "name": "Cylinder_2"
    },
    {
      "mesh": 4,
      "name": "Object_11"
    },
    {
      "children": [
        13
      ],
      "name": "Plane_3"
    },
    {
      "mesh": 5,
      "name": "Object_13"
    }
  ],
  "scene": 0,
  "scenes": [
    {
      "name": "Sketchfab_Scene",
      "nodes": [
        0
      ]
    }
  ]
}
